<svg width="143" height="227" viewBox="0 0 143 227" fill="none" xmlns="http://www.w3.org/2000/svg">
<path d="M127.774 202.221H17.4198C13.207 202.221 9.79227 198.664 9.79227 194.275V31.4643C9.79227 27.0764 13.207 23.519 17.4198 23.519H127.774C131.986 23.519 135.401 27.0764 135.401 31.4643V194.275C135.401 198.664 131.986 202.221 127.774 202.221Z" fill="#121212" fill-opacity="0.3"/>
<path d="M125.168 192.913H20.0252C18.9167 192.913 18.018 191.976 18.018 190.822V39.7073C18.018 38.5526 18.9167 37.6165 20.0252 37.6165H125.168C126.277 37.6165 127.175 38.5526 127.175 39.7073V190.822C127.175 191.976 126.277 192.913 125.168 192.913Z" fill="white"/>
<path d="M14.5169 201.625C12.4868 200.812 10.2527 198.877 9.79227 195.171L9.79404 194.455C9.86293 197.695 11.7941 200.457 14.5169 201.625Z" fill="url(#paint0_radial_1_500)" fill-opacity="0.5"/>
<path d="M16.7814 202.104C16.1532 202.104 15.3523 201.96 14.5169 201.625C11.7941 200.457 9.86292 197.695 9.79404 194.455L10.2259 31.7215L18.018 42.858V190.822C18.018 191.976 18.9167 192.913 20.0252 192.913H123.013L129.321 201.927L17.4198 202.043C17.2375 202.083 17.0219 202.104 16.7814 202.104Z" fill="#121212" fill-opacity="0.04"/>
<path d="M123.013 192.913H20.0252C18.9167 192.913 18.018 191.976 18.018 190.822V42.858L32.6404 63.7555H24.5546V90.439H50.1716V88.81L123.013 192.913ZM24.5546 144.342V171.025H50.1716V151.728L59.3017 143.744L56.1549 142.854L50.1716 147.437V144.342H24.5546ZM24.5546 104.048V130.732H50.1716V114.605L59.3017 106.621L56.1549 105.731L50.1716 110.315V104.048H24.5546ZM49.2529 170.069H25.4729V145.299H49.2529V148.141L37.8825 156.85L32.9674 151.652L28.2695 154.926L37.6809 162.649L49.2529 152.531V170.069ZM49.2529 129.775H25.4729V105.005H49.2529V111.018L37.8825 119.727L32.9674 114.529L28.2695 117.803L37.6809 125.527L49.2529 115.408V129.775ZM49.2529 89.4821H25.4729V64.712H33.31L38.7027 72.4194L36.016 74.4771L31.1008 69.2791L26.403 72.5528L35.814 80.2766L41.0172 75.7269L49.2529 87.4973V89.4821Z" fill="#F5F5F5" fill-opacity="0.5"/>
<path d="M71.9668 226.898C32.7614 226.898 0.979065 223.367 0.979065 219.012C0.979065 214.656 32.7614 211.125 71.9668 211.125C111.172 211.125 142.954 214.656 142.954 219.012C142.954 223.367 111.172 226.898 71.9668 226.898Z" fill="#121212" fill-opacity="0.2"/>
<path d="M25.4729 89.4821H49.2529V64.712H25.4729V89.4821ZM50.1715 90.439H24.5546V63.7555H50.1715V90.439Z" fill="#121212" fill-opacity="0.3"/>
<path d="M25.4729 129.775H49.2529V105.005H25.4729V129.775ZM50.1715 130.732H24.5546V104.048H50.1715V130.732Z" fill="#121212" fill-opacity="0.3"/>
<path d="M25.4729 170.069H49.2529V145.299H25.4729V170.069ZM50.1715 171.025H24.5546V144.342H50.1715V171.025Z" fill="#121212" fill-opacity="0.3"/>
<path d="M116.567 68.6858H63.8011V65.9489H116.567V68.6858Z" fill="#E6E6E6"/>
<path d="M116.567 77.0973H63.8011V74.3604H116.567V77.0973Z" fill="#E6E6E6"/>
<path d="M116.567 85.5084H63.8011V82.7718H116.567V85.5084Z" fill="#E6E6E6"/>
<path d="M116.567 109.87H63.8011V107.133H116.567V109.87Z" fill="#E6E6E6"/>
<path d="M116.567 118.281H63.8011V115.544H116.567V118.281Z" fill="#E6E6E6"/>
<path d="M116.567 126.693H63.8011V123.956H116.567V126.693Z" fill="#E6E6E6"/>
<path d="M116.567 148.563H63.8011V145.826H116.567V148.563Z" fill="#E6E6E6"/>
<path d="M116.567 156.975H63.8011V154.238H116.567V156.975Z" fill="#E6E6E6"/>
<path d="M116.567 165.386H63.8011V162.649H116.567V165.386Z" fill="#E6E6E6"/>
<path d="M49.2529 68.5259V64.712H48.7646L50.0138 63.7555H50.1715V67.7226L49.2529 68.5259Z" fill="#121212" fill-opacity="0.3"/>
<path d="M49.2529 115.408V111.018L50.1716 110.315V114.605L49.2529 115.408Z" fill="#121212" fill-opacity="0.3"/>
<path d="M49.2529 152.531V148.141L50.1716 147.437V151.728L49.2529 152.531Z" fill="#121212" fill-opacity="0.3"/>
<path d="M73.7082 17.2567C70.9875 17.2567 68.7819 14.9592 68.7819 12.1249C68.7819 9.29092 70.9875 6.99344 73.7082 6.99344C76.4288 6.99344 78.6348 9.29092 78.6348 12.1249C78.6348 14.9592 76.4288 17.2567 73.7082 17.2567ZM107.266 19.0809H88.5968V16.3031C88.5968 7.82358 81.9974 0.949699 73.857 0.949699H73.5593C65.4189 0.949699 58.8199 7.82358 58.8199 16.3031V19.0809H40.151C39.1856 19.0809 38.4029 19.8962 38.4029 20.9018V40.523C38.4029 41.5286 39.1856 42.3439 40.151 42.3439H107.266C108.231 42.3439 109.013 41.5286 109.013 40.523V20.9018C109.013 19.8962 108.231 19.0809 107.266 19.0809Z" fill="#121212" fill-opacity="0.4"/>
<path d="M109.013 39.156H38.4029V36.0771H109.013V39.156Z" fill="#121212" fill-opacity="0.3"/>
<path d="M108.691 41.3126H38.7937C38.5778 41.3126 38.4029 41.1304 38.4029 40.9059V39.959H109.013V40.9765C109.013 41.1624 108.869 41.3126 108.691 41.3126Z" fill="#121212" fill-opacity="0.4"/>
<defs>
<radialGradient id="paint0_radial_1_500" cx="0" cy="0" r="1" gradientUnits="userSpaceOnUse" gradientTransform="translate(-4.02889 91.5391) scale(117.319 122.205)">
<stop stop-color="#B1C0CA"/>
<stop offset="1" stop-color="#96ACB9"/>
</radialGradient>
</defs>
</svg>
