<svg width="375" height="243" viewBox="0 0 375 243" fill="none" xmlns="http://www.w3.org/2000/svg">
<g clip-path="url(#clip0_1_15)">
<path d="M93.2765 219.789C83.4551 213.025 54.3619 192.986 55.0107 167.749C55.4462 150.809 69.0077 142.32 70.4085 112.979C70.7072 106.725 70.2775 103.203 70.8658 88.7039C71.9861 61.0968 74.2219 57.1406 76.0492 54.8707C83.2399 45.9398 95.4028 49.1107 112.028 46.8299C140.692 42.8956 144.469 27.9904 174.992 14.3617C188.65 8.26231 229.904 -10.1564 266.159 7.38316C284.75 16.3766 304.594 36.0687 307.321 59.4214C309.679 79.6094 296.843 81.9591 297.412 110.551C297.58 118.965 300.471 133.203 306.254 161.68C310.797 184.053 311.224 183.81 310.981 185.955C306.54 224.929 169.3 272.153 93.2765 219.789Z" fill="#F5F6F5"/>
<path d="M117.744 212.923C117.744 212.923 104.802 210.255 105.661 197.947C106.521 185.64 98.7289 183.051 94.8653 176.749C91.0018 170.448 89.6151 157.717 95.0423 154.058C95.8439 153.518 96.7473 153.274 97.7055 153.274C103.235 153.274 110.625 161.369 111.26 167.192C112.005 174.026 114.411 178.984 121.293 183.132C128.174 187.278 132.892 205.753 131.506 207.12C130.121 208.487 117.744 212.923 117.744 212.923Z" fill="#F7D898"/>
<path d="M98.3212 159.864C98.1078 163.034 97.8957 166.312 98.8568 169.391C99.7851 172.363 101.735 174.998 103.577 177.471C105.533 180.096 107.75 182.487 109.862 184.984C111.949 187.451 113.71 190.126 115.188 192.997C116.846 196.218 118.17 199.595 119.439 202.983C119.541 203.254 119.983 203.136 119.88 202.861C117.739 197.145 115.411 191.384 111.666 186.492C107.742 181.367 102.738 176.904 99.9622 170.972C98.3264 167.475 98.526 163.615 98.7786 159.864C98.7983 159.571 98.3409 159.573 98.3212 159.864Z" fill="#FAFAFA"/>
<path d="M103.588 176.446C102.918 175.843 103.12 174.12 103.175 173.332C103.271 171.968 103.551 170.626 103.825 169.289C104.319 166.871 104.79 164.425 104.257 161.97C104.194 161.685 103.753 161.806 103.815 162.092C104.448 165.005 103.597 167.895 103.07 170.753C102.833 172.038 102.643 173.349 102.688 174.66C102.711 175.332 102.724 176.282 103.265 176.767C103.483 176.963 103.807 176.643 103.588 176.446Z" fill="#FAFAFA"/>
<path d="M95.0064 163.894C94.8824 165.404 94.7979 167.044 95.7478 168.329C96.2585 169.019 96.9778 169.564 97.6174 170.128C98.3906 170.812 99.1637 171.497 99.9369 172.181C100.156 172.375 100.481 172.055 100.26 171.859C99.0128 170.755 97.6718 169.703 96.5092 168.511C95.2662 167.236 95.3281 165.546 95.4638 163.894C95.4877 163.603 95.0302 163.604 95.0064 163.894Z" fill="#FAFAFA"/>
<path d="M110.596 185.024C108.008 183.508 105.16 182.37 102.44 181.109C102.175 180.987 101.942 181.38 102.209 181.502C104.929 182.763 107.777 183.901 110.365 185.417C110.62 185.565 110.85 185.172 110.596 185.024Z" fill="#FAFAFA"/>
<path d="M116.81 195.203C116.675 193.374 117.534 191.583 117.769 189.78C117.995 188.051 117.937 186.312 117.644 184.594C117.595 184.306 117.154 184.429 117.203 184.716C117.524 186.594 117.543 188.513 117.216 190.393C116.938 191.995 116.231 193.552 116.353 195.203C116.375 195.494 116.832 195.495 116.81 195.203Z" fill="#FAFAFA"/>
<path d="M273.408 224.735C273.359 224.735 273.315 224.732 273.275 224.723C272.69 224.609 271.621 224.088 270.266 223.315C274.503 221.36 278.495 219.308 282.198 217.182C278.246 221.694 274.715 224.735 273.408 224.735ZM306.382 162.315C306.34 162.105 306.296 161.895 306.253 161.681C303.08 146.059 300.778 134.721 299.317 126.28C302.657 124.449 306.037 123.335 309.124 123.335C310.52 123.335 311.853 123.563 313.097 124.056C323.346 128.123 318.892 151.456 310.033 158.944C308.723 160.05 307.505 161.169 306.382 162.315Z" fill="#FDDEA0"/>
<path d="M270.268 223.314C264.148 219.816 252.153 211.127 252.153 211.127C252.153 211.127 243.664 190.666 261.701 180.232C279.74 169.799 276.003 156.552 281.173 145.244C284.33 138.34 291.714 130.451 299.319 126.28C300.779 134.721 303.082 146.059 306.254 161.68C306.297 161.894 306.34 162.105 306.384 162.314C299.911 168.92 296.611 176.438 297.203 187.905C297.644 196.415 289.246 209.138 282.198 217.182C278.495 219.308 274.504 221.36 270.268 223.314Z" fill="#F7D898"/>
<path d="M268.742 206.151C267.692 201.819 268.924 197.101 270.325 192.991C271.788 188.7 273.695 184.355 276.226 180.572C279.101 176.273 282.89 172.695 286.377 168.902C289.93 165.038 292.938 160.82 295.434 156.205C298.282 150.935 300.527 145.372 302.761 139.825C302.87 139.553 302.428 139.435 302.32 139.704C300.25 144.846 298.169 149.996 295.6 154.917C293.084 159.735 290.061 164.182 286.395 168.207C282.954 171.987 279.196 175.52 276.255 179.721C273.679 183.405 271.765 187.658 270.236 191.868C268.617 196.328 267.151 201.526 268.3 206.27C268.37 206.556 268.811 206.434 268.742 206.151Z" fill="#FAFAFA"/>
<path d="M292.918 160.643C289.682 157.983 289.727 153.504 290.568 149.771C291.497 145.632 292.847 141.551 294.229 137.543C294.325 137.266 293.883 137.147 293.789 137.423C293.02 139.65 292.298 141.892 291.627 144.15C290.978 146.335 290.299 148.539 289.895 150.785C289.252 154.361 289.586 158.491 292.595 160.964C292.819 161.149 293.145 160.829 292.918 160.643Z" fill="#FAFAFA"/>
<path d="M296.154 156.048C299.422 155.006 302.44 153.366 305.09 151.197C305.318 151.01 304.994 150.69 304.768 150.875C302.179 152.993 299.222 154.592 296.031 155.608C295.753 155.698 295.872 156.138 296.154 156.048Z" fill="#FAFAFA"/>
<path d="M279.643 175.675C278.627 172.038 278.551 168.23 279.423 164.557C279.49 164.272 279.05 164.15 278.981 164.436C278.091 168.188 278.165 172.082 279.201 175.796C279.28 176.078 279.72 175.959 279.643 175.675Z" fill="#FAFAFA"/>
<path d="M285.309 169.195C289.192 170.726 293.414 171.128 297.519 170.383C297.809 170.33 297.687 169.891 297.399 169.943C293.371 170.674 289.235 170.256 285.431 168.757C285.157 168.647 285.038 169.087 285.309 169.195Z" fill="#FAFAFA"/>
<path d="M272.064 193.271C272.432 189.686 276.985 189.628 279.679 189.528C282.965 189.405 286.25 189.283 289.535 189.158C289.828 189.148 289.83 188.692 289.535 188.703C285.677 188.849 281.811 188.938 277.955 189.141C275.315 189.281 271.927 190.143 271.607 193.271C271.576 193.563 272.034 193.561 272.064 193.271Z" fill="#FAFAFA"/>
<path d="M301.222 216.375C301.222 224.88 249.963 231.774 186.73 231.774C123.498 231.774 72.2379 224.88 72.2379 216.375C72.2379 207.871 123.498 200.975 186.73 200.975C249.963 200.975 301.222 207.871 301.222 216.375Z" fill="#255091"/>
<path d="M261.524 222.281L122.603 189.832L163.465 16.5737L302.386 49.0233L261.524 222.281Z" fill="#1F4571"/>
<path d="M267.474 214.245L125.478 200.184L143.186 23.0931L285.18 37.1544L267.474 214.245Z" fill="#FAB63C"/>
<path d="M263.498 202.512L119.226 193.989L129.172 27.2395L273.444 35.7631L263.498 202.512Z" fill="white"/>
<path d="M156.767 53.6431L142.918 52.8254L143.74 39.0433L157.589 39.861L156.767 53.6431Z" fill="#D2EDFA"/>
<path d="M155.186 80.1483L141.337 79.3306L142.159 65.5469L156.008 66.3662L155.186 80.1483Z" fill="#D2EDFA"/>
<path d="M153.641 106.046L139.792 105.228L140.614 91.4461L154.463 92.2643L153.641 106.046Z" fill="#D2EDFA"/>
<path d="M152.105 131.793L138.257 130.975L139.079 117.193L152.928 118.011L152.105 131.793Z" fill="#D2EDFA"/>
<path d="M150.452 159.509L136.603 158.69L137.425 144.909L151.274 145.727L150.452 159.509Z" fill="#D2EDFA"/>
<path d="M250.125 50.3433L166.27 45.3897L166.478 41.9062L250.332 46.8598L250.125 50.3433Z" fill="#D2EDFA"/>
<path d="M232.019 56.8732L165.818 52.9634L166.026 49.4799L232.227 53.3897L232.019 56.8732Z" fill="#D2EDFA"/>
<path d="M241.095 76.2552L164.698 71.7431L164.906 68.2597L241.302 72.7733L241.095 76.2552Z" fill="#D2EDFA"/>
<path d="M246.274 84.1613L164.246 79.3154L164.454 75.832L246.481 80.6778L246.274 84.1613Z" fill="#D2EDFA"/>
<path d="M246.98 103.049L163.126 98.0954L163.334 94.6121L247.189 99.5659L246.98 103.049Z" fill="#D2EDFA"/>
<path d="M237.066 110.519L162.647 106.122L162.882 102.185L237.3 106.581L237.066 110.519Z" fill="#D2EDFA"/>
<path d="M232.32 128.629L161.554 124.448L161.762 120.965L232.529 125.145L232.32 128.629Z" fill="#D2EDFA"/>
<path d="M244.957 136.974L161.103 132.021L161.31 128.537L245.164 133.491L244.957 136.974Z" fill="#D2EDFA"/>
<path d="M243.836 155.754L159.982 150.801L160.19 147.317L244.043 152.271L243.836 155.754Z" fill="#D2EDFA"/>
<path d="M222.535 162.096L159.53 158.373L159.738 154.889L222.743 158.613L222.535 162.096Z" fill="#D2EDFA"/>
<path d="M120.8 99.7522C120.8 99.7522 133.053 94.5933 135.409 93.3204C137.765 92.0473 140.012 68.337 140.08 65.1874L144.348 66.2494C144.348 66.2494 144.094 93.7223 141.199 97.0722C138.304 100.422 123.493 108.261 123.493 108.261L120.8 99.7522Z" fill="#FBCCA6"/>
<path d="M138.345 63.3379C138.345 63.3379 138.775 65.5788 140.189 65.7806C141.603 65.9809 140.189 63.3379 140.189 63.3379H138.345Z" fill="#FBCCA6"/>
<path d="M137.227 59.3477C137.631 59.416 150.624 65.7806 150.624 65.7806L149.479 68.4599L136.082 62.2971L137.227 59.3477Z" fill="#1F4571"/>
<path d="M140.232 65.7942C140.232 65.7942 138.977 61.4247 140.189 60.9559C141.401 60.4871 144.767 60.6206 145.373 62.0953C145.979 63.5685 144.902 65.3118 144.296 66.3161C143.69 67.3205 140.501 66.9336 140.232 65.7942Z" fill="#FBCCA6"/>
<path d="M149.479 68.4599H152.442L150.624 65.7806L149.479 68.4599Z" fill="#FAB63C"/>
<path d="M149.834 50.9516L143.76 44.8768L146.461 42.202L149.698 45.4397L158.941 35.2427L161.771 37.784L149.834 50.9516Z" fill="#FAB63C"/>
<path d="M149.834 77.1989L143.76 71.1241L146.461 68.4493L149.698 71.687L158.941 61.49L161.771 64.0313L149.834 77.1989Z" fill="#FAB63C"/>
<path d="M145.718 104.812L139.643 98.7375L142.345 96.0619L145.582 99.2992L154.825 89.1028L157.654 91.6436L145.718 104.812Z" fill="#FAB63C"/>
<path d="M145.718 128.935L139.643 122.861L142.345 120.185L145.582 123.422L154.825 113.226L157.654 115.767L145.718 128.935Z" fill="#FAB63C"/>
<path d="M144.193 158.672L138.119 152.597L140.82 149.922L144.058 153.16L153.3 142.963L156.13 145.504L144.193 158.672Z" fill="#FAB63C"/>
<path d="M128.188 221.913C124.644 217.455 116.505 217.041 115.222 217.1C114.173 217.46 113.148 217.8 112.181 218.12C111.031 218.598 109.882 219.133 108.657 219.429C108.713 220.729 108.745 221.488 108.745 221.488L128.188 221.913Z" fill="#1F4571"/>
<path d="M140.699 199.478C138.877 199.879 137.001 199.965 135.142 199.945C135.126 201.778 135.095 203.447 135.064 204.822C136.614 204.608 138.341 204.588 139.858 204.098C139.952 203.632 140.294 201.901 140.699 199.478Z" fill="#FBCCA6"/>
<path d="M94.7978 108.616C94.7978 108.616 85.9587 131.641 86.1111 136.799C86.2636 141.958 104.406 158.949 104.406 158.949L105.015 153.639C105.015 153.639 91.5995 140.896 93.2764 134.068C94.9534 127.241 101.921 112.15 101.921 112.15L94.7978 108.616Z" fill="#FBCCA6"/>
<path d="M150.904 210.837C147.296 204.952 139.832 204.225 139.832 204.225C139.832 204.225 139.841 204.181 139.858 204.098C138.341 204.588 136.614 204.608 135.064 204.822C135.01 207.122 134.953 208.589 134.953 208.589L150.904 210.837Z" fill="#1F4571"/>
<path d="M92.8613 112.478C92.8613 112.478 95.3524 101.959 101.007 102.629C106.662 103.299 99.5262 117.972 99.5262 117.972L92.8613 112.478Z" fill="#FAB63C"/>
<path d="M115.222 217.1C114.81 217.12 114.582 217.188 114.582 217.188C114.582 217.188 114.616 215.712 114.66 213.394C112.981 214.698 110.717 214.967 108.465 215.005C108.544 216.791 108.609 218.309 108.657 219.429C109.882 219.133 111.031 218.598 112.181 218.12C113.148 217.8 114.173 217.46 115.222 217.1Z" fill="#FBCCA6"/>
<path d="M115.616 177.11C115.01 168.116 115.639 131.926 115.639 131.926H99.782C99.782 131.926 100.021 138.622 100.899 146.661C102.092 157.578 104.071 170.979 104.575 173.536C105.208 176.743 106.402 202.148 107.016 216.011C110.127 215.956 113.252 215.587 115.572 213.787C115.757 204.124 116.072 183.866 115.616 177.11Z" fill="#1F4571"/>
<path d="M142.267 199.178C143.842 189.757 146.106 172.762 143.353 165.81C139.449 155.951 120.698 132.613 120.698 132.613L109.625 132.602C106.644 132.16 106.771 139.547 113.553 149.24C118.126 155.777 128.709 163.999 132.096 169.165C134.398 172.675 134.694 188.489 134.593 199.822C137.16 199.85 139.75 199.731 142.267 199.178Z" fill="#1F4571"/>
<path d="M101.007 94.9244L102.758 103.433L109.692 103.232L107.942 94.9244H101.007Z" fill="#FBCCA6"/>
<path d="M109.625 85.4115C109.625 85.4115 114.203 96.7335 109.625 99.2122C105.047 101.691 100.334 97.9393 100.199 95.3264C100.065 92.7135 97.5067 87.1532 97.5067 87.1532L109.625 85.4115Z" fill="#FBCCA6"/>
<path d="M102.892 92.7135H104.171L102.421 87.3535C102.421 87.3535 110.433 86.8179 110.702 83.87C110.971 80.9221 105.734 81.9265 101.748 81.9265C96.6987 81.9265 95.7562 85.4115 95.7562 85.4115C95.7562 85.4115 95.1917 85.2749 95.7562 88.4929C96.4968 92.7135 101.006 99.2122 103.364 99.2122C104.575 99.2122 102.017 95.9964 102.017 95.9964L101.748 93.8525C101.748 93.8525 99.9976 91.3735 100.603 90.9719C101.209 90.5699 102.892 92.7135 102.892 92.7135Z" fill="#1F4571"/>
<path d="M101.007 102.629C101.007 102.629 113.636 99.6299 115.992 102.511C118.348 105.392 120.718 132.551 120.718 132.551L99.2221 142.261C99.2221 142.261 95.5544 110.803 101.007 102.629Z" fill="#FAB63C"/>
<path d="M121.011 99.3163C121.011 99.3163 110.953 100.962 111.935 104.661C112.917 108.359 119.041 112.373 126.175 110.043L121.011 99.3163Z" fill="#FAB63C"/>
</g>
<defs>
<clipPath id="clip0_1_15">
<rect width="375" height="243" fill="white"/>
</clipPath>
</defs>
</svg>
